# xmcd
#
# Track frame offsets: 
#        150
#        13997
#        37479
#        60144
#        73985
#        91012
#        108033
#        125356
#        148448
#        175104
#        197223
#
# Disc length: 2898 seconds
#
# Revision: 0
# Processed by: cddbd v1.5.2PL0 Copyright (c) Steve Scherf et al.
# Submitted via: ExactAudioCopy v1.3
#
DISCID=9f0b500b
DTITLE=Paul Gabriel - What's The Chance
DYEAR=2013
DGENRE=Guitar Blues
TTITLE0=Old Time Ball
TTITLE1=Ride, Ride, Ride
TTITLE2=What's The Chance
TTITLE3=328 Chauncy Street
TTITLE4=Baby I Wish
TTITLE5=Devil's Daughter
TTITLE6=All That Time Gone
TTITLE7=Roomful Of Blues
TTITLE8=Magic
TTITLE9=Fine At'tire
TTITLE10=Spoda Be
EXTD=
EXTT0=
EXTT1=
EXTT2=
EXTT3=
EXTT4=
EXTT5=
EXTT6=
EXTT7=
EXTT8=
EXTT9=
EXTT10=
PLAYORDER=
